<svg id="visual" viewBox="0 0 960 300" width="960" height="300" xmlns="http://www.w3.org/2000/svg" xmlns:xlink="http://www.w3.org/1999/xlink" version="1.1"><rect x="0" y="0" width="960" height="300" fill="#161925"></rect><path d="M0 188L14.5 184C29 180 58 172 87.2 181.5C116.3 191 145.7 218 174.8 234.8C204 251.7 233 258.3 262 257.2C291 256 320 247 349 247.3C378 247.7 407 257.3 436.2 263.5C465.3 269.7 494.7 272.3 523.8 268.8C553 265.3 582 255.7 611 250C640 244.3 669 242.7 698 235.7C727 228.7 756 216.3 785.2 221.3C814.3 226.3 843.7 248.7 872.8 250.5C902 252.3 931 233.7 945.5 224.3L960 215L960 0L945.5 0C931 0 902 0 872.8 0C843.7 0 814.3 0 785.2 0C756 0 727 0 698 0C669 0 640 0 611 0C582 0 553 0 523.8 0C494.7 0 465.3 0 436.2 0C407 0 378 0 349 0C320 0 291 0 262 0C233 0 204 0 174.8 0C145.7 0 116.3 0 87.2 0C58 0 29 0 14.5 0L0 0Z" fill="#161925"></path><path d="M0 141L14.5 139.2C29 137.3 58 133.7 87.2 133.2C116.3 132.7 145.7 135.3 174.8 139.7C204 144 233 150 262 157C291 164 320 172 349 175.7C378 179.3 407 178.7 436.2 174.2C465.3 169.7 494.7 161.3 523.8 160C553 158.7 582 164.3 611 176.8C640 189.3 669 208.7 698 203.5C727 198.3 756 168.7 785.2 161.5C814.3 154.3 843.7 169.7 872.8 170C902 170.3 931 155.7 945.5 148.3L960 141L960 0L945.5 0C931 0 902 0 872.8 0C843.7 0 814.3 0 785.2 0C756 0 727 0 698 0C669 0 640 0 611 0C582 0 553 0 523.8 0C494.7 0 465.3 0 436.2 0C407 0 378 0 349 0C320 0 291 0 262 0C233 0 204 0 174.8 0C145.7 0 116.3 0 87.2 0C58 0 29 0 14.5 0L0 0Z" fill="#5a3759"></path><path d="M0 177L14.5 166C29 155 58 133 87.2 127.7C116.3 122.3 145.7 133.7 174.8 133.3C204 133 233 121 262 125.3C291 129.7 320 150.3 349 151.7C378 153 407 135 436.2 133.5C465.3 132 494.7 147 523.8 155.2C553 163.3 582 164.7 611 163.2C640 161.7 669 157.3 698 145.3C727 133.3 756 113.7 785.2 110C814.3 106.3 843.7 118.7 872.8 118.8C902 119 931 107 945.5 101L960 95L960 0L945.5 0C931 0 902 0 872.8 0C843.7 0 814.3 0 785.2 0C756 0 727 0 698 0C669 0 640 0 611 0C582 0 553 0 523.8 0C494.7 0 465.3 0 436.2 0C407 0 378 0 349 0C320 0 291 0 262 0C233 0 204 0 174.8 0C145.7 0 116.3 0 87.2 0C58 0 29 0 14.5 0L0 0Z" fill="#b55068"></path><path d="M0 75L14.5 72C29 69 58 63 87.2 63.2C116.3 63.3 145.7 69.7 174.8 74.5C204 79.3 233 82.7 262 91.3C291 100 320 114 349 107.8C378 101.7 407 75.3 436.2 62.5C465.3 49.7 494.7 50.3 523.8 53.5C553 56.7 582 62.3 611 71.2C640 80 669 92 698 94.2C727 96.3 756 88.7 785.2 91.5C814.3 94.3 843.7 107.7 872.8 106.2C902 104.7 931 88.3 945.5 80.2L960 72L960 0L945.5 0C931 0 902 0 872.8 0C843.7 0 814.3 0 785.2 0C756 0 727 0 698 0C669 0 640 0 611 0C582 0 553 0 523.8 0C494.7 0 465.3 0 436.2 0C407 0 378 0 349 0C320 0 291 0 262 0C233 0 204 0 174.8 0C145.7 0 116.3 0 87.2 0C58 0 29 0 14.5 0L0 0Z" fill="#f5854f"></path><path d="M0 54L14.5 55C29 56 58 58 87.2 61.5C116.3 65 145.7 70 174.8 62.3C204 54.7 233 34.3 262 25.5C291 16.7 320 19.3 349 30.3C378 41.3 407 60.7 436.2 63.2C465.3 65.7 494.7 51.3 523.8 49.7C553 48 582 59 611 65.2C640 71.3 669 72.7 698 63C727 53.3 756 32.7 785.2 22.8C814.3 13 843.7 14 872.8 19.7C902 25.3 931 35.7 945.5 40.8L960 46L960 0L945.5 0C931 0 902 0 872.8 0C843.7 0 814.3 0 785.2 0C756 0 727 0 698 0C669 0 640 0 611 0C582 0 553 0 523.8 0C494.7 0 465.3 0 436.2 0C407 0 378 0 349 0C320 0 291 0 262 0C233 0 204 0 174.8 0C145.7 0 116.3 0 87.2 0C58 0 29 0 14.5 0L0 0Z" fill="#f9d731"></path></svg>