<svg id="visual" viewBox="0 0 900 600" width="900" height="600" xmlns="http://www.w3.org/2000/svg" xmlns:xlink="http://www.w3.org/1999/xlink" version="1.1"><rect x="0" y="0" width="900" height="600" fill="#fff"></rect><path d="M0 172L21.5 171.5C43 171 86 170 128.8 179.3C171.7 188.7 214.3 208.3 257.2 219.2C300 230 343 232 385.8 220C428.7 208 471.3 182 514.2 174C557 166 600 176 642.8 190.5C685.7 205 728.3 224 771.2 234C814 244 857 245 878.5 245.5L900 246L900 0L878.5 0C857 0 814 0 771.2 0C728.3 0 685.7 0 642.8 0C600 0 557 0 514.2 0C471.3 0 428.7 0 385.8 0C343 0 300 0 257.2 0C214.3 0 171.7 0 128.8 0C86 0 43 0 21.5 0L0 0Z" fill="#eeeeee"></path><path d="M0 118L21.5 118.5C43 119 86 120 128.8 130.7C171.7 141.3 214.3 161.7 257.2 163.3C300 165 343 148 385.8 145.3C428.7 142.7 471.3 154.3 514.2 162.7C557 171 600 176 642.8 175.7C685.7 175.3 728.3 169.7 771.2 161.3C814 153 857 142 878.5 136.5L900 131L900 0L878.5 0C857 0 814 0 771.2 0C728.3 0 685.7 0 642.8 0C600 0 557 0 514.2 0C471.3 0 428.7 0 385.8 0C343 0 300 0 257.2 0C214.3 0 171.7 0 128.8 0C86 0 43 0 21.5 0L0 0Z" fill="#f6e8c3"></path><path d="M0 112L21.5 110C43 108 86 104 128.8 101.3C171.7 98.7 214.3 97.3 257.2 99.7C300 102 343 108 385.8 117.7C428.7 127.3 471.3 140.7 514.2 140.5C557 140.3 600 126.7 642.8 123.2C685.7 119.7 728.3 126.3 771.2 130.7C814 135 857 137 878.5 138L900 139L900 0L878.5 0C857 0 814 0 771.2 0C728.3 0 685.7 0 642.8 0C600 0 557 0 514.2 0C471.3 0 428.7 0 385.8 0C343 0 300 0 257.2 0C214.3 0 171.7 0 128.8 0C86 0 43 0 21.5 0L0 0Z" fill="#fae298"></path><path d="M0 76L21.5 74.7C43 73.3 86 70.7 128.8 74.7C171.7 78.7 214.3 89.3 257.2 91C300 92.7 343 85.3 385.8 80C428.7 74.7 471.3 71.3 514.2 72C557 72.7 600 77.3 642.8 78.3C685.7 79.3 728.3 76.7 771.2 74.3C814 72 857 70 878.5 69L900 68L900 0L878.5 0C857 0 814 0 771.2 0C728.3 0 685.7 0 642.8 0C600 0 557 0 514.2 0C471.3 0 428.7 0 385.8 0C343 0 300 0 257.2 0C214.3 0 171.7 0 128.8 0C86 0 43 0 21.5 0L0 0Z" fill="#fbdc6a"></path><path d="M0 26L21.5 29.8C43 33.7 86 41.3 128.8 47.7C171.7 54 214.3 59 257.2 58C300 57 343 50 385.8 50.3C428.7 50.7 471.3 58.3 514.2 60.3C557 62.3 600 58.7 642.8 56.3C685.7 54 728.3 53 771.2 54.3C814 55.7 857 59.3 878.5 61.2L900 63L900 0L878.5 0C857 0 814 0 771.2 0C728.3 0 685.7 0 642.8 0C600 0 557 0 514.2 0C471.3 0 428.7 0 385.8 0C343 0 300 0 257.2 0C214.3 0 171.7 0 128.8 0C86 0 43 0 21.5 0L0 0Z" fill="#f9d731"></path></svg>