<svg id="visual" viewBox="0 0 960 300" width="960" height="300" xmlns="http://www.w3.org/2000/svg" xmlns:xlink="http://www.w3.org/1999/xlink" version="1.1"><rect x="0" y="0" width="960" height="300" fill="#161925"></rect><path d="M0 54L14.5 61.5C29 69 58 84 87.2 90.2C116.3 96.3 145.7 93.7 174.8 79.8C204 66 233 41 262 28.5C291 16 320 16 349 36.5C378 57 407 98 436.2 114.5C465.3 131 494.7 123 523.8 109.2C553 95.3 582 75.7 611 71.5C640 67.3 669 78.7 698 77.2C727 75.7 756 61.3 785.2 55C814.3 48.7 843.7 50.3 872.8 63.5C902 76.7 931 101.3 945.5 113.7L960 126L960 301L945.5 301C931 301 902 301 872.8 301C843.7 301 814.3 301 785.2 301C756 301 727 301 698 301C669 301 640 301 611 301C582 301 553 301 523.8 301C494.7 301 465.3 301 436.2 301C407 301 378 301 349 301C320 301 291 301 262 301C233 301 204 301 174.8 301C145.7 301 116.3 301 87.2 301C58 301 29 301 14.5 301L0 301Z" fill="#161925"></path><path d="M0 151L14.5 145.2C29 139.3 58 127.7 87.2 129.5C116.3 131.3 145.7 146.7 174.8 149C204 151.3 233 140.7 262 125.8C291 111 320 92 349 87C378 82 407 91 436.2 101.8C465.3 112.7 494.7 125.3 523.8 131.8C553 138.3 582 138.7 611 130.5C640 122.3 669 105.7 698 99.2C727 92.7 756 96.3 785.2 108.5C814.3 120.7 843.7 141.3 872.8 141.2C902 141 931 120 945.5 109.5L960 99L960 301L945.5 301C931 301 902 301 872.8 301C843.7 301 814.3 301 785.2 301C756 301 727 301 698 301C669 301 640 301 611 301C582 301 553 301 523.8 301C494.7 301 465.3 301 436.2 301C407 301 378 301 349 301C320 301 291 301 262 301C233 301 204 301 174.8 301C145.7 301 116.3 301 87.2 301C58 301 29 301 14.5 301L0 301Z" fill="#484a55"></path><path d="M0 141L14.5 140.2C29 139.3 58 137.7 87.2 147.7C116.3 157.7 145.7 179.3 174.8 192.2C204 205 233 209 262 197.5C291 186 320 159 349 147.2C378 135.3 407 138.7 436.2 149.2C465.3 159.7 494.7 177.3 523.8 181.7C553 186 582 177 611 172.8C640 168.7 669 169.3 698 172.2C727 175 756 180 785.2 184.7C814.3 189.3 843.7 193.7 872.8 192.2C902 190.7 931 183.3 945.5 179.7L960 176L960 301L945.5 301C931 301 902 301 872.8 301C843.7 301 814.3 301 785.2 301C756 301 727 301 698 301C669 301 640 301 611 301C582 301 553 301 523.8 301C494.7 301 465.3 301 436.2 301C407 301 378 301 349 301C320 301 291 301 262 301C233 301 204 301 174.8 301C145.7 301 116.3 301 87.2 301C58 301 29 301 14.5 301L0 301Z" fill="#81828a"></path><path d="M0 173L14.5 177.7C29 182.3 58 191.7 87.2 199.8C116.3 208 145.7 215 174.8 217.2C204 219.3 233 216.7 262 206.7C291 196.7 320 179.3 349 177.2C378 175 407 188 436.2 195.3C465.3 202.7 494.7 204.3 523.8 210.5C553 216.7 582 227.3 611 232.2C640 237 669 236 698 229C727 222 756 209 785.2 202.2C814.3 195.3 843.7 194.7 872.8 190.8C902 187 931 180 945.5 176.5L960 173L960 301L945.5 301C931 301 902 301 872.8 301C843.7 301 814.3 301 785.2 301C756 301 727 301 698 301C669 301 640 301 611 301C582 301 553 301 523.8 301C494.7 301 465.3 301 436.2 301C407 301 378 301 349 301C320 301 291 301 262 301C233 301 204 301 174.8 301C145.7 301 116.3 301 87.2 301C58 301 29 301 14.5 301L0 301Z" fill="#bebfc3"></path><path d="M0 211L14.5 216.8C29 222.7 58 234.3 87.2 240C116.3 245.7 145.7 245.3 174.8 241.7C204 238 233 231 262 231.2C291 231.3 320 238.7 349 245.7C378 252.7 407 259.3 436.2 259.7C465.3 260 494.7 254 523.8 252.3C553 250.7 582 253.3 611 254.7C640 256 669 256 698 259.5C727 263 756 270 785.2 266.5C814.3 263 843.7 249 872.8 247.8C902 246.7 931 258.3 945.5 264.2L960 270L960 301L945.5 301C931 301 902 301 872.8 301C843.7 301 814.3 301 785.2 301C756 301 727 301 698 301C669 301 640 301 611 301C582 301 553 301 523.8 301C494.7 301 465.3 301 436.2 301C407 301 378 301 349 301C320 301 291 301 262 301C233 301 204 301 174.8 301C145.7 301 116.3 301 87.2 301C58 301 29 301 14.5 301L0 301Z" fill="#ffffff"></path></svg>