<svg id="visual" viewBox="0 0 960 300" width="960" height="300" xmlns="http://www.w3.org/2000/svg" xmlns:xlink="http://www.w3.org/1999/xlink" version="1.1"><rect x="0" y="0" width="960" height="300" fill="#fff"></rect><path d="M0 149L22.8 151C45.7 153 91.3 157 137 171.5C182.7 186 228.3 211 274 223.8C319.7 236.7 365.3 237.3 411.2 223.2C457 209 503 180 548.8 173.2C594.7 166.3 640.3 181.7 686 196.5C731.7 211.3 777.3 225.7 823 221C868.7 216.3 914.3 192.7 937.2 180.8L960 169L960 0L937.2 0C914.3 0 868.7 0 823 0C777.3 0 731.7 0 686 0C640.3 0 594.7 0 548.8 0C503 0 457 0 411.2 0C365.3 0 319.7 0 274 0C228.3 0 182.7 0 137 0C91.3 0 45.7 0 22.8 0L0 0Z" fill="#ffffff"></path><path d="M0 137L22.8 140.8C45.7 144.7 91.3 152.3 137 165C182.7 177.7 228.3 195.3 274 189C319.7 182.7 365.3 152.3 411.2 137.8C457 123.3 503 124.7 548.8 139.2C594.7 153.7 640.3 181.3 686 179.5C731.7 177.7 777.3 146.3 823 139.5C868.7 132.7 914.3 150.3 937.2 159.2L960 168L960 0L937.2 0C914.3 0 868.7 0 823 0C777.3 0 731.7 0 686 0C640.3 0 594.7 0 548.8 0C503 0 457 0 411.2 0C365.3 0 319.7 0 274 0C228.3 0 182.7 0 137 0C91.3 0 45.7 0 22.8 0L0 0Z" fill="#fff4d0"></path><path d="M0 119L22.8 118.5C45.7 118 91.3 117 137 114.2C182.7 111.3 228.3 106.7 274 103.7C319.7 100.7 365.3 99.3 411.2 107.8C457 116.3 503 134.7 548.8 138.2C594.7 141.7 640.3 130.3 686 122.5C731.7 114.7 777.3 110.3 823 114.5C868.7 118.7 914.3 131.3 937.2 137.7L960 144L960 0L937.2 0C914.3 0 868.7 0 823 0C777.3 0 731.7 0 686 0C640.3 0 594.7 0 548.8 0C503 0 457 0 411.2 0C365.3 0 319.7 0 274 0C228.3 0 182.7 0 137 0C91.3 0 45.7 0 22.8 0L0 0Z" fill="#ffeaa0"></path><path d="M0 89L22.8 92.5C45.7 96 91.3 103 137 107.5C182.7 112 228.3 114 274 110C319.7 106 365.3 96 411.2 86.2C457 76.3 503 66.7 548.8 71.3C594.7 76 640.3 95 686 95.5C731.7 96 777.3 78 823 72.5C868.7 67 914.3 74 937.2 77.5L960 81L960 0L937.2 0C914.3 0 868.7 0 823 0C777.3 0 731.7 0 686 0C640.3 0 594.7 0 548.8 0C503 0 457 0 411.2 0C365.3 0 319.7 0 274 0C228.3 0 182.7 0 137 0C91.3 0 45.7 0 22.8 0L0 0Z" fill="#fde16e"></path><path d="M0 59L22.8 53C45.7 47 91.3 35 137 30.5C182.7 26 228.3 29 274 31.2C319.7 33.3 365.3 34.7 411.2 41.5C457 48.3 503 60.7 548.8 65.8C594.7 71 640.3 69 686 66C731.7 63 777.3 59 823 55C868.7 51 914.3 47 937.2 45L960 43L960 0L937.2 0C914.3 0 868.7 0 823 0C777.3 0 731.7 0 686 0C640.3 0 594.7 0 548.8 0C503 0 457 0 411.2 0C365.3 0 319.7 0 274 0C228.3 0 182.7 0 137 0C91.3 0 45.7 0 22.8 0L0 0Z" fill="#f9d731"></path></svg>